<?xml version="1.0"?>
<svg xmlns="http://www.w3.org/2000/svg" viewBox="0 0 64 64" width="512px" height="512px"><g><g id="Layer_14" data-name="Layer 14"><path d="M59.71,48.29a1,1,0,0,0-1.42,0l-2,2-1.73-3.47A27,27,0,1,0,5,32,26.82,26.82,0,0,0,9.46,46.84L7.73,50.31l-2-2a1,1,0,0,0-1.42,0l-.88.88a8.26,8.26,0,0,0,0,11.66A7.38,7.38,0,0,0,8.66,63h6.68a7.38,7.38,0,0,0,5.25-2.17A8.54,8.54,0,0,0,22,58.94a8.54,8.54,0,0,0,1.41,1.89A7.38,7.38,0,0,0,28.66,63h6.68a7.38,7.38,0,0,0,5.25-2.17A8.54,8.54,0,0,0,42,58.94a8.54,8.54,0,0,0,1.41,1.89A7.38,7.38,0,0,0,48.66,63h6.68a7.38,7.38,0,0,0,5.25-2.17,8.26,8.26,0,0,0,0-11.66ZM31,11.05a20.92,20.92,0,0,0-13.1,5.43l-2.85-2.84A24.88,24.88,0,0,1,31,7Zm0,2V31H13.05A19,19,0,0,1,31,13.05Zm-17.36,2,2.84,2.85A20.92,20.92,0,0,0,11.05,31H7A24.88,24.88,0,0,1,13.64,15.05ZM7,33H29.59L21,41.59V39H19v5a1,1,0,0,0,1,1h4V43H22.41l10.3-10.29A1,1,0,0,0,33,32V7a24.88,24.88,0,0,1,16,6.61l-2.66,2.65,1.42,1.42,2.65-2.66A24.88,24.88,0,0,1,57,31H53v2h4A24.76,24.76,0,0,1,53.5,44.76l-.61-1.21a1,1,0,0,0-1.78,0l-3.38,6.76-2-2a1,1,0,0,0-1.42,0l-.88.88A8.54,8.54,0,0,0,42,51.06a8.54,8.54,0,0,0-1.41-1.89l-.88-.88a1,1,0,0,0-1.42,0l-2,2-3.38-6.76a1,1,0,0,0-1.78,0l-3.38,6.76-2-2a1,1,0,0,0-1.42,0l-.88.88A8.54,8.54,0,0,0,22,51.06a8.54,8.54,0,0,0-1.41-1.89l-.88-.88a1,1,0,0,0-1.42,0l-2,2-3.38-6.76a1,1,0,0,0-1.78,0l-.61,1.21A24.76,24.76,0,0,1,7,33ZM19.17,59.41A5.35,5.35,0,0,1,15.34,61H8.66a5.35,5.35,0,0,1-3.83-1.59,6.23,6.23,0,0,1,0-8.82L5,50.41l2.29,2.3a1,1,0,0,0,.87.28,1,1,0,0,0,.73-.54L12,46.24l3.11,6.21a1,1,0,0,0,.73.54,1,1,0,0,0,.87-.28L19,50.41l.17.18a6.23,6.23,0,0,1,0,8.82Zm20,0A5.35,5.35,0,0,1,35.34,61H28.66a5.35,5.35,0,0,1-3.83-1.59,6.23,6.23,0,0,1,0-8.82l.17-.18,2.29,2.3a1,1,0,0,0,.87.28,1,1,0,0,0,.73-.54L32,46.24l3.11,6.21a1,1,0,0,0,.73.54,1,1,0,0,0,.87-.28L39,50.41l.17.18a6.23,6.23,0,0,1,0,8.82Zm20,0A5.35,5.35,0,0,1,55.34,61H48.66a5.35,5.35,0,0,1-3.83-1.59,6.23,6.23,0,0,1,0-8.82l.17-.18,2.29,2.3a1,1,0,0,0,.87.28,1,1,0,0,0,.73-.54L52,46.24l3.11,6.21a1,1,0,0,0,.73.54,1,1,0,0,0,.87-.28L59,50.41l.17.18a6.23,6.23,0,0,1,0,8.82Z" data-original="#000000" class="active-path" data-old_color="#000000" fill="#FB5252"/><path d="M6.34,45.53a29,29,0,1,1,51.32,0l1.76.94a31,31,0,1,0-54.84,0Z" data-original="#000000" class="active-path" data-old_color="#000000" fill="#FB5252"/></g></g> </svg>
